<?xml version="1.0" encoding="UTF-8" standalone="no"?>
<!-- Created with Inkscape (http://www.inkscape.org/) -->

<svg
   version="1.1"
   id="svg1485"
   width="256"
   height="256"
   viewBox="0 0 256 256"
   sodipodi:docname="gentoo_Logo.svg"
   inkscape:version="1.2.2 (b0a8486541, 2022-12-01)"
   xmlns:inkscape="http://www.inkscape.org/namespaces/inkscape"
   xmlns:sodipodi="http://sodipodi.sourceforge.net/DTD/sodipodi-0.dtd"
   xmlns="http://www.w3.org/2000/svg"
   xmlns:svg="http://www.w3.org/2000/svg">
  <defs
     id="defs1489" />
  <sodipodi:namedview
     id="namedview1487"
     pagecolor="#ffffff"
     bordercolor="#000000"
     borderopacity="0.25"
     inkscape:showpageshadow="2"
     inkscape:pageopacity="0.0"
     inkscape:pagecheckerboard="0"
     inkscape:deskcolor="#d1d1d1"
     showgrid="false"
     showguides="true"
     inkscape:zoom="1.4055818"
     inkscape:cx="380.62529"
     inkscape:cy="131.97382"
     inkscape:window-width="1499"
     inkscape:window-height="1236"
     inkscape:window-x="1438"
     inkscape:window-y="637"
     inkscape:window-maximized="0"
     inkscape:current-layer="g2195">
    <sodipodi:guide
       position="393.43137,-10.081979"
       orientation="1,0"
       id="guide2269"
       inkscape:locked="false" />
  </sodipodi:namedview>
  <g
     inkscape:groupmode="layer"
     inkscape:label="Image"
     id="g1491">
    <g
       id="g2195"
       transform="translate(-47.807111,-0.29863633)">
      <path
         style="fill:#9254ff;stroke-width:1.06667;fill-opacity:1"
         d="M 93.596197,254.79767 C 80.813005,252.6744 66.789712,242.82754 60.088673,231.26941 c -7.153514,-12.33858 -7.98732,-29.0501 -2.067299,-41.43373 6.431839,-13.45426 17.703621,-26.24006 42.189116,-47.85596 l 12.55878,-11.08694 -14.475746,-7.81196 C 75.729606,110.90399 68.183088,104.83127 62.712637,94.448687 c -2.491565,-4.72884 -2.836339,-6.611838 -2.840844,-15.515354 -0.0049,-9.720842 0.177763,-10.513996 4.487755,-19.4848 6.287254,-13.086272 15.374712,-24.959962 25.264171,-33.010218 4.254364,-3.463156 3.784044,-2.815575 -2.153764,2.965496 -20.046341,19.517192 -28.333523,39.865827 -21.474619,52.729522 4.98495,9.349143 23.078208,22.034427 45.970544,32.230197 6.54544,2.9152 12.24858,5.62778 12.67364,6.02794 0.42508,0.40017 -7.16149,7.63984 -16.85902,16.08817 -24.526241,21.36682 -39.807706,37.47106 -44.548164,46.94667 -2.058171,4.11404 -4.05214,10.00614 -4.431043,13.09355 -1.895677,15.44651 8.925586,33.92437 22.594908,38.58197 11.302164,3.85104 36.647309,1.05732 58.076129,-6.40156 41.10543,-14.30786 90.72105,-45.7758 125.02276,-79.29373 17.15101,-16.75912 25.35389,-28.08542 28.32116,-39.10506 C 295.81673,99.158563 284.88228,82.396467 258.83746,58.213293 235.70283,36.732293 202.84235,13.985916 183.6,6.1331269 c -4.10666,-1.6759282 -6.02666,-2.7599686 -4.26666,-2.4089786 5.77541,1.1517671 26.43398,11.8887297 39.4739,20.5159247 34.04705,22.525502 64.90502,52.473712 74.98191,72.771273 3.76096,7.575594 3.94419,8.443834 3.94419,18.689094 0,9.95297 -0.25256,11.25348 -3.42861,17.65533 -10.4868,21.13782 -58.30786,62.71568 -103.76715,90.21998 -26.85522,16.24826 -49.66531,26.06459 -70.37084,30.28411 -11.12955,2.26805 -17.25927,2.48441 -26.570543,0.93781 z m -3.11275,-30.87342 c -7.345471,-1.28415 -10.719865,-3.10395 -15.436742,-8.32498 -4.031937,-4.46286 -7.180037,-12.78531 -7.180037,-18.98142 0,-12.55118 11.81301,-27.56856 42.157672,-53.59324 17.81857,-15.28186 26.109,-23.67281 26.109,-26.42559 0,-2.05725 -3.31729,-4.01809 -23.73334,-14.02869 C 86.58213,89.911058 76.166609,83.476439 72.305601,77.800359 65.451384,67.723953 75.683925,45.494094 94.025843,30.613852 105.30955,21.459722 118.6483,13.11184 125.61371,10.84501 c 15.55591,-5.062541 35.00244,-5.6144005 47.17693,-1.3388014 27.96021,9.8194424 63.90783,35.7945404 89.53261,64.6946434 13.4875,15.211459 17.07613,21.302739 17.62455,29.915658 0.40432,6.34973 0.21304,7.02388 -3.35988,11.8416 -4.43119,5.97501 -26.54013,27.92961 -38.05458,37.78893 -31.1297,26.655 -75.11421,53.97443 -102.40809,63.60718 -16.20637,5.71967 -35.01723,8.42744 -45.641803,6.57003 z M 190.2817,92.100785 c 11.02013,-5.244878 16.2245,-13.046469 14.02271,-21.020679 -2.37542,-8.603091 -12.03801,-17.605117 -24.15401,-22.502805 -16.10514,-6.510223 -27.8005,-3.98934 -33.52187,7.225487 -3.00425,5.888812 -3.83052,16.352274 -1.62767,20.612099 5.12503,9.910734 25.72204,20.566272 36.46581,18.865014 1.76,-0.278695 5.72676,-1.709296 8.81503,-3.179116 z m -7.86976,-7.422775 c -3.98845,-4.127096 -21.19039,-6.165802 -18.95726,-2.246739 0.40806,0.716135 -0.76632,-0.102016 -2.60976,-1.818109 -4.26038,-3.966106 -5.13575,-8.443408 -2.79471,-14.294268 2.11098,-5.275857 4.09436,-6.585561 9.97299,-6.585561 9.44681,0 22.34842,7.760505 24.02821,14.45331 0.83128,3.312098 -0.76346,8.24657 -5.07663,11.389787 -2.86094,2.084903 -2.57237,1.161251 -4.56284,-0.89842 z"
         id="path2199"
         sodipodi:nodetypes="sssscsssssssssssssssssssssssssssssssssssssssssssssssssssssssss" />
      <path
         style="fill:#e7caff;stroke-width:1.06667;fill-opacity:1"
         d="m 80.959553,235.03564 c -6.28804,-2.22655 -14.249858,-9.74861 -17.634069,-16.66007 -6.244214,-12.75234 -6.270463,-22.60153 -0.09315,-34.94926 4.740457,-9.47561 20.021922,-25.57985 44.548156,-46.94667 9.69753,-8.44833 17.28411,-15.688 16.85903,-16.08817 -0.42507,-0.40016 -6.1282,-3.11274 -12.67364,-6.02794 C 89.073544,104.16776 70.980286,91.482476 65.995336,82.133333 56.117677,63.608044 79.055419,29.060855 112.71951,11.760716 126.76925,4.5404897 136.01485,2.0721945 151.63302,1.3719902 c 15.55609,-0.69742172 25.80981,1.4798499 39.95193,8.483383 18.1115,8.9692668 47.89997,30.3886658 67.25251,48.3579198 26.04482,24.183174 36.97927,40.94527 33.97879,52.088187 -2.96727,11.01964 -11.17015,22.34594 -28.32116,39.10506 -41.91534,40.9576 -103.9342,76.89486 -147.06606,85.21845 -13.4061,2.58711 -29.801536,2.77172 -36.469477,0.41065 z m 37.573787,-12.80977 c 30.37583,-5.96112 80.17826,-34.38122 120,-68.47883 11.51445,-9.85932 33.62339,-31.81392 38.05458,-37.78893 3.57292,-4.81772 3.7642,-5.49187 3.35988,-11.8416 C 279.39938,95.503591 275.81075,89.412311 262.32325,74.200852 236.69847,45.300749 200.75085,19.325651 172.79064,9.5062086 160.61615,5.2306095 141.16962,5.782469 125.61371,10.84501 118.6483,13.11184 105.30955,21.459722 94.025843,30.613852 75.683925,45.494094 65.451384,67.723953 72.305601,77.800359 76.166609,83.476439 86.58213,89.911058 112.4,102.57033 c 20.41605,10.0106 23.73334,11.97144 23.73334,14.02869 0,2.75278 -8.29043,11.14373 -26.109,26.42559 -30.344662,26.02468 -42.157672,41.04206 -42.157672,53.59324 0,9.46256 6.450773,20.88057 14.003284,24.78613 7.304815,3.77747 20.136918,4.06513 36.663388,0.82189 z M 173.58222,94.856466 c -11.00674,-2.18551 -24.76595,-11.063381 -28.58136,-18.441579 -2.20285,-4.259825 -1.37658,-14.723287 1.62767,-20.612099 5.72137,-11.214827 17.41673,-13.73571 33.52187,-7.225487 12.116,4.897688 21.77859,13.899714 24.15401,22.502805 2.20179,7.97421 -3.00258,15.775801 -14.02271,21.020679 -6.98862,3.326143 -10.72301,3.942376 -16.69948,2.755681 z m 14.60884,-10.544962 c 5.70825,-5.708247 5.38453,-10.941153 -1.05155,-16.998383 -6.30879,-5.937419 -19.91714,-9.450763 -25.34803,-6.544239 -2.77535,1.485324 -5.67633,9.378299 -4.92292,13.394292 1.30194,6.939958 11.79394,13.240107 22.11606,13.280067 5.29832,0.02051 6.44387,-0.369173 9.20644,-3.131737 z"
         id="path2197" />
    </g>
  </g>
</svg>
